<mxfile host="app.diagrams.net" modified="2020-12-06T08:08:32.288Z" agent="5.0 (Windows)" etag="FXXJWJ0aRUaOV1Zp2i12" version="13.10.9" type="github">
  <diagram id="BbsPhjvvmLac4U86oqIc" name="Page-1">
    <mxGraphModel dx="1038" dy="547" grid="1" gridSize="10" guides="1" tooltips="1" connect="1" arrows="1" fold="1" page="1" pageScale="1" pageWidth="1169" pageHeight="827" math="0" shadow="0">
      <root>
        <mxCell id="0" />
        <mxCell id="1" parent="0" />
        <mxCell id="iJsRZvcZcMVNx7B1bG_4-1" value="&#xa;CHART OF ACCOUNTS/CODES&#xa;" style="swimlane;" vertex="1" parent="1">
          <mxGeometry x="10" y="10" width="1150" height="810" as="geometry" />
        </mxCell>
        <mxCell id="iJsRZvcZcMVNx7B1bG_4-2" value="Start" style="rounded=1;whiteSpace=wrap;html=1;" vertex="1" parent="iJsRZvcZcMVNx7B1bG_4-1">
          <mxGeometry x="260" y="40" width="90" height="50" as="geometry" />
        </mxCell>
        <mxCell id="iJsRZvcZcMVNx7B1bG_4-5" value="GL Accountant/Cost centre heads identifies the need for creating/deleting an account" style="rounded=0;whiteSpace=wrap;html=1;" vertex="1" parent="iJsRZvcZcMVNx7B1bG_4-1">
          <mxGeometry x="230" y="160" width="150" height="70" as="geometry" />
        </mxCell>
        <mxCell id="iJsRZvcZcMVNx7B1bG_4-4" value="" style="edgeStyle=orthogonalEdgeStyle;rounded=0;orthogonalLoop=1;jettySize=auto;html=1;entryX=0.5;entryY=0;entryDx=0;entryDy=0;" edge="1" parent="iJsRZvcZcMVNx7B1bG_4-1" source="iJsRZvcZcMVNx7B1bG_4-2" target="iJsRZvcZcMVNx7B1bG_4-5">
          <mxGeometry relative="1" as="geometry">
            <mxPoint x="305" y="165" as="targetPoint" />
          </mxGeometry>
        </mxCell>
        <mxCell id="iJsRZvcZcMVNx7B1bG_4-6" value="DDF reviews request for creation/ deletion of the account" style="whiteSpace=wrap;html=1;rounded=0;" vertex="1" parent="iJsRZvcZcMVNx7B1bG_4-1">
          <mxGeometry x="230" y="290" width="150" height="70" as="geometry" />
        </mxCell>
        <mxCell id="iJsRZvcZcMVNx7B1bG_4-7" value="" style="edgeStyle=orthogonalEdgeStyle;rounded=0;orthogonalLoop=1;jettySize=auto;html=1;" edge="1" parent="iJsRZvcZcMVNx7B1bG_4-1" source="iJsRZvcZcMVNx7B1bG_4-5" target="iJsRZvcZcMVNx7B1bG_4-6">
          <mxGeometry relative="1" as="geometry" />
        </mxCell>
        <mxCell id="iJsRZvcZcMVNx7B1bG_4-8" value="&lt;div&gt;DDF Approves &lt;br&gt;&lt;/div&gt;&lt;div&gt;request?&lt;/div&gt;" style="rhombus;whiteSpace=wrap;html=1;rounded=0;" vertex="1" parent="1">
          <mxGeometry x="250" y="445" width="130" height="80" as="geometry" />
        </mxCell>
        <mxCell id="iJsRZvcZcMVNx7B1bG_4-9" value="" style="edgeStyle=orthogonalEdgeStyle;rounded=0;orthogonalLoop=1;jettySize=auto;html=1;" edge="1" parent="1" source="iJsRZvcZcMVNx7B1bG_4-6" target="iJsRZvcZcMVNx7B1bG_4-8">
          <mxGeometry relative="1" as="geometry" />
        </mxCell>
      </root>
    </mxGraphModel>
  </diagram>
</mxfile>
